<!-- Generated by IcoMoon.io -->
<svg version="1.1" xmlns="http://www.w3.org/2000/svg" width="32" height="32" viewBox="0 0 32 32">
<title>instagram</title>
<path fill="#304ffe" d="M21.333 28h-10.667c-3.667 0-6.667-3-6.667-6.667v-10.667c0-3.667 3-6.667 6.667-6.667h10.667c3.667 0 6.667 3 6.667 6.667v10.667c0 3.667-3 6.667-6.667 6.667z"></path>
<path fill="#304ffe" opacity="0.2902" d="M4 10.667v10.667c0 3.667 3 6.667 6.667 6.667h10.667c3.667 0 6.667-3 6.667-6.667v-10.667c0-0.667-0.067-1.267-0.267-1.867-3.733-3-8.533-4.8-13.733-4.8-2.467 0-4.867 0.4-7.133 1.2-1.733 1.2-2.867 3.2-2.867 5.467z"></path>
<path fill="#6200ea" d="M14 5.333c-3.333 0-6.4 0.8-9.2 2.133-0.533 1-0.8 2.067-0.8 3.2v10.667c0 3.667 3 6.667 6.667 6.667h10.667c3.667 0 6.667-3 6.667-6.667v-10.533c-3.667-3.4-8.6-5.467-14-5.467z"></path>
<path fill="#673ab7" d="M28 12.667c-3.533-3.667-8.467-6-14-6-3.6 0-7 1-9.867 2.733-0.067 0.4-0.133 0.8-0.133 1.267v10.667c0 3.667 3 6.667 6.667 6.667h10.667c3.667 0 6.667-3 6.667-6.667v-8.667z"></path>
<path fill="#8e24aa" d="M28 14.667c-3.267-4.067-8.333-6.667-14-6.667-3.733 0-7.133 1.133-10 3.067v10.267c0 3.667 3 6.667 6.667 6.667h10.667c3.667 0 6.667-3 6.667-6.667v-6.667z"></path>
<path fill="#c2185b" d="M28 21.333v-4.4c-3-4.533-8.133-7.6-14-7.6-3.733 0-7.2 1.267-10 3.333v8.667c0 3.667 3 6.667 6.667 6.667h10.667c3.667 0 6.667-3 6.667-6.667z"></path>
<path fill="#d81b60" d="M28 21.333v-1.6c-2.4-5.333-7.733-9.067-14-9.067-3.8 0-7.333 1.4-10 3.733v6.933c0 3.667 3 6.667 6.667 6.667h10.667c3.667 0 6.667-3 6.667-6.667z"></path>
<path fill="#f50057" d="M27.733 23.2c-1.267-6.4-6.933-11.2-13.733-11.2-3.933 0-7.467 1.6-10 4.2v5.133c0 3.667 3 6.667 6.667 6.667h10.667c3 0 5.6-2 6.4-4.8z"></path>
<path fill="#ff1744" d="M26.6 25.333c-0.333-6.667-5.8-12-12.6-12-4.067 0-7.667 1.933-10 4.933v3.067c0 3.667 3 6.667 6.667 6.667h10.667c2.133 0 4.067-1.067 5.267-2.667z"></path>
<path fill="#ff5722" d="M14 14.667c-4.333 0-8.067 2.4-10 6v0.667c0 3.667 3 6.667 6.667 6.667h10.667c1.467 0 2.867-0.467 3.933-1.333 0-0.2 0.067-0.467 0.067-0.667 0-6.267-5.067-11.333-11.333-11.333z"></path>
<path fill="#ff6f00" d="M14 16c-4.667 0-8.533 3.133-9.667 7.467 0.867 2.667 3.4 4.533 6.333 4.533h10.667c0.933 0 1.733-0.2 2.533-0.533 0.067-0.467 0.133-1 0.133-1.467 0-5.533-4.467-10-10-10z"></path>
<path fill="#ff9800" d="M14 17.333c-4.6 0-8.333 3.533-8.6 8 1.2 1.6 3.133 2.667 5.267 2.667h10.667c0.4 0 0.733-0.067 1.133-0.133 0.133-0.6 0.2-1.2 0.2-1.867 0-4.8-3.867-8.667-8.667-8.667z"></path>
<path fill="#ffc107" d="M21.067 28c0.2-0.667 0.267-1.333 0.267-2 0-4.067-3.267-7.333-7.333-7.333s-7.333 3.267-7.333 7.333c0 0.2 0 0.467 0.067 0.667 1.133 0.8 2.467 1.333 3.933 1.333h10.4z"></path>
<path fill="#ffd54f" d="M14 20c-3.333 0-6 2.667-6 6 0 0.533 0.067 1.067 0.2 1.533 0.733 0.333 1.6 0.467 2.467 0.467h9c0.2-0.6 0.333-1.267 0.333-2 0-3.333-2.667-6-6-6z"></path>
<path fill="#ffe082" d="M14 21.4c-2.6 0-4.667 2.067-4.667 4.667 0 0.667 0.133 1.267 0.4 1.867 0.333 0.067 0.6 0.067 0.933 0.067h7.6c0.267-0.6 0.4-1.267 0.4-1.933 0-2.6-2.067-4.667-4.667-4.667z"></path>
<path fill="#ffecb3" d="M14 22.733c-1.867 0-3.333 1.467-3.333 3.333 0 0.733 0.267 1.4 0.667 1.933h5.333c0.4-0.533 0.667-1.2 0.667-1.933 0-1.867-1.467-3.333-3.333-3.333z"></path>
<path fill="#fff" d="M20 25.333h-8c-2.933 0-5.333-2.4-5.333-5.333v-8c0-2.933 2.4-5.333 5.333-5.333h8c2.933 0 5.333 2.4 5.333 5.333v8c0 2.933-2.4 5.333-5.333 5.333zM12 8c-2.2 0-4 1.8-4 4v8c0 2.2 1.8 4 4 4h8c2.2 0 4-1.8 4-4v-8c0-2.2-1.8-4-4-4h-8z"></path>
<path fill="#fff" d="M16 20.667c-2.6 0-4.667-2.067-4.667-4.667s2.067-4.667 4.667-4.667c2.6 0 4.667 2.067 4.667 4.667s-2.067 4.667-4.667 4.667zM16 12.667c-1.867 0-3.333 1.467-3.333 3.333s1.467 3.333 3.333 3.333 3.333-1.467 3.333-3.333-1.467-3.333-3.333-3.333z"></path>
<path fill="#fff" d="M21.333 10.667c0 0.4-0.267 0.667-0.667 0.667s-0.667-0.267-0.667-0.667 0.267-0.667 0.667-0.667 0.667 0.267 0.667 0.667z"></path>
</svg>
