<!-- Generated by IcoMoon.io -->
<svg version="1.1" xmlns="http://www.w3.org/2000/svg" width="32" height="32" viewBox="0 0 32 32">
<title>instagram-coach</title>
<path fill="#3aab3a" d="M22.467 0h-12.934c-5.256 0-9.533 4.276-9.533 9.533v12.934c0 5.256 4.276 9.533 9.533 9.533h12.934c5.256 0 9.533-4.276 9.533-9.533v-12.934c-0-5.256-4.277-9.533-9.533-9.533zM28.781 22.467c0 3.487-2.827 6.314-6.314 6.314h-12.934c-3.487 0-6.314-2.827-6.314-6.314v-12.934c0-3.487 2.827-6.314 6.314-6.314h12.934c3.487 0 6.314 2.827 6.314 6.314v12.934z"></path>
<path fill="#3aab3a" d="M16 7.724c-4.564 0-8.276 3.713-8.276 8.276s3.713 8.276 8.276 8.276 8.276-3.713 8.276-8.276-3.713-8.276-8.276-8.276zM16 21.057c-2.793 0-5.057-2.264-5.057-5.057s2.264-5.057 5.057-5.057c2.793 0 5.057 2.264 5.057 5.057s-2.264 5.057-5.057 5.057z"></path>
<path fill="#3aab3a" d="M26.276 7.786c0 1.095-0.888 1.983-1.983 1.983s-1.983-0.888-1.983-1.983c0-1.095 0.888-1.983 1.983-1.983s1.983 0.888 1.983 1.983z"></path>
</svg>
