<!-- Generated by IcoMoon.io -->
<svg version="1.1" xmlns="http://www.w3.org/2000/svg" width="32" height="32" viewBox="0 0 32 32">
<title>telegram</title>
<path fill="#000" d="M29.333 16c0 7.364-5.97 13.333-13.333 13.333s-13.333-5.97-13.333-13.333c0-7.364 5.97-13.333 13.333-13.333s13.333 5.97 13.333 13.333z"></path>
<path fill="#fff" d="M22.784 9.874l-2.545 12.995c0 0-0.356 0.901-1.335 0.469l-5.873-4.56-2.135-1.045-3.595-1.225c0 0-0.552-0.198-0.605-0.631s0.623-0.667 0.623-0.667l14.291-5.677c-0.001-0.001 1.174-0.523 1.174 0.342z"></path>
<path fill="#d2e5f1" d="M12.58 22.722c0 0-0.171-0.016-0.385-0.701s-1.299-4.289-1.299-4.289l8.631-5.551c0 0 0.498-0.307 0.481 0 0 0 0.089 0.054-0.178 0.307s-6.781 6.182-6.781 6.182z"></path>
<path fill="#b5cfe4" d="M15.283 20.525l-2.323 2.145c0 0-0.181 0.139-0.38 0.052l0.445-3.984z"></path>
</svg>
