<!-- Generated by IcoMoon.io -->
<svg version="1.1" xmlns="http://www.w3.org/2000/svg" width="32" height="32" viewBox="0 0 32 32">
<title>whatsapp</title>
<path fill="#7ad06d" d="M15.224 0.019c-8.451 0.402-15.12 7.441-15.095 15.901 0.008 2.577 0.63 5.009 1.727 7.158l-1.685 8.179c-0.091 0.442 0.308 0.83 0.747 0.726l8.014-1.899c2.059 1.026 4.372 1.618 6.819 1.655 8.638 0.132 15.84-6.727 16.11-15.361 0.289-9.256-7.351-16.802-16.639-16.36zM24.787 24.658c-2.347 2.347-5.468 3.64-8.787 3.64-1.944 0-3.804-0.436-5.531-1.296l-1.116-0.556-4.914 1.164 1.034-5.021-0.55-1.077c-0.896-1.755-1.351-3.653-1.351-5.641 0-3.319 1.293-6.44 3.64-8.787 2.326-2.326 5.498-3.64 8.787-3.64 3.319 0 6.44 1.293 8.787 3.64s3.64 5.468 3.64 8.787c-0 3.29-1.314 6.461-3.64 8.787z"></path>
<path fill="#7ad06d" d="M23.702 19.313l-3.074-0.883c-0.404-0.116-0.839-0.001-1.134 0.299l-0.752 0.766c-0.317 0.323-0.798 0.427-1.218 0.257-1.454-0.589-4.513-3.308-5.295-4.669-0.225-0.392-0.188-0.883 0.089-1.241l0.656-0.849c0.257-0.333 0.311-0.779 0.141-1.164l-1.293-2.925c-0.31-0.701-1.205-0.905-1.79-0.41-0.858 0.726-1.876 1.828-2 3.050-0.218 2.154 0.706 4.869 4.199 8.129 4.035 3.766 7.267 4.264 9.371 3.754 1.193-0.289 2.147-1.448 2.749-2.397 0.41-0.647 0.086-1.506-0.65-1.718z"></path>
</svg>
