<svg aria-hidden="true" style="position: absolute; width: 0; height: 0; overflow: hidden;" version="1.1" xmlns="http://www.w3.org/2000/svg" xmlns:xlink="http://www.w3.org/1999/xlink">
<defs>
<symbol id="icon-whatsapp" viewBox="0 0 32 32">
<title>whatsapp</title>
<path fill="#7ad06d" style="fill: var(--color1, #7ad06d)" d="M15.224 0.019c-8.451 0.402-15.12 7.441-15.095 15.901 0.008 2.577 0.63 5.009 1.727 7.158l-1.685 8.179c-0.091 0.442 0.308 0.83 0.747 0.726l8.014-1.899c2.059 1.026 4.372 1.618 6.819 1.655 8.638 0.132 15.84-6.727 16.11-15.361 0.289-9.256-7.351-16.802-16.639-16.36zM24.787 24.658c-2.347 2.347-5.468 3.64-8.787 3.64-1.944 0-3.804-0.436-5.531-1.296l-1.116-0.556-4.914 1.164 1.034-5.021-0.55-1.077c-0.896-1.755-1.351-3.653-1.351-5.641 0-3.319 1.293-6.44 3.64-8.787 2.326-2.326 5.498-3.64 8.787-3.64 3.319 0 6.44 1.293 8.787 3.64s3.64 5.468 3.64 8.787c-0 3.29-1.314 6.461-3.64 8.787z"></path>
<path fill="#7ad06d" style="fill: var(--color1, #7ad06d)" d="M23.702 19.313l-3.074-0.883c-0.404-0.116-0.839-0.001-1.134 0.299l-0.752 0.766c-0.317 0.323-0.798 0.427-1.218 0.257-1.454-0.589-4.513-3.308-5.295-4.669-0.225-0.392-0.188-0.883 0.089-1.241l0.656-0.849c0.257-0.333 0.311-0.779 0.141-1.164l-1.293-2.925c-0.31-0.701-1.205-0.905-1.79-0.41-0.858 0.726-1.876 1.828-2 3.050-0.218 2.154 0.706 4.869 4.199 8.129 4.035 3.766 7.267 4.264 9.371 3.754 1.193-0.289 2.147-1.448 2.749-2.397 0.41-0.647 0.086-1.506-0.65-1.718z"></path>
</symbol>
<symbol id="icon-instagram-coach" viewBox="0 0 32 32">
<title>instagram-coach</title>
<path d="M22.467 0h-12.934c-5.256 0-9.533 4.276-9.533 9.533v12.934c0 5.256 4.276 9.533 9.533 9.533h12.934c5.256 0 9.533-4.276 9.533-9.533v-12.934c-0-5.256-4.277-9.533-9.533-9.533zM28.781 22.467c0 3.487-2.827 6.314-6.314 6.314h-12.934c-3.487 0-6.314-2.827-6.314-6.314v-12.934c0-3.487 2.827-6.314 6.314-6.314h12.934c3.487 0 6.314 2.827 6.314 6.314v12.934z"></path>
<path d="M16 7.724c-4.564 0-8.276 3.713-8.276 8.276s3.713 8.276 8.276 8.276 8.276-3.713 8.276-8.276-3.713-8.276-8.276-8.276zM16 21.057c-2.793 0-5.057-2.264-5.057-5.057s2.264-5.057 5.057-5.057c2.793 0 5.057 2.264 5.057 5.057s-2.264 5.057-5.057 5.057z"></path>
<path d="M26.276 7.786c0 1.095-0.888 1.983-1.983 1.983s-1.983-0.888-1.983-1.983c0-1.095 0.888-1.983 1.983-1.983s1.983 0.888 1.983 1.983z"></path>
</symbol>
<symbol id="icon-instagram" viewBox="0 0 32 32">
<title>instagram</title>
<path fill="#304ffe" style="fill: var(--color2, #304ffe)" d="M21.333 28h-10.667c-3.667 0-6.667-3-6.667-6.667v-10.667c0-3.667 3-6.667 6.667-6.667h10.667c3.667 0 6.667 3 6.667 6.667v10.667c0 3.667-3 6.667-6.667 6.667z"></path>
<path fill="#304ffe" opacity="0.2902" style="fill: var(--color2, #304ffe)" d="M4 10.667v10.667c0 3.667 3 6.667 6.667 6.667h10.667c3.667 0 6.667-3 6.667-6.667v-10.667c0-0.667-0.067-1.267-0.267-1.867-3.733-3-8.533-4.8-13.733-4.8-2.467 0-4.867 0.4-7.133 1.2-1.733 1.2-2.867 3.2-2.867 5.467z"></path>
<path fill="#6200ea" style="fill: var(--color3, #6200ea)" d="M14 5.333c-3.333 0-6.4 0.8-9.2 2.133-0.533 1-0.8 2.067-0.8 3.2v10.667c0 3.667 3 6.667 6.667 6.667h10.667c3.667 0 6.667-3 6.667-6.667v-10.533c-3.667-3.4-8.6-5.467-14-5.467z"></path>
<path fill="#673ab7" style="fill: var(--color4, #673ab7)" d="M28 12.667c-3.533-3.667-8.467-6-14-6-3.6 0-7 1-9.867 2.733-0.067 0.4-0.133 0.8-0.133 1.267v10.667c0 3.667 3 6.667 6.667 6.667h10.667c3.667 0 6.667-3 6.667-6.667v-8.667z"></path>
<path fill="#8e24aa" style="fill: var(--color5, #8e24aa)" d="M28 14.667c-3.267-4.067-8.333-6.667-14-6.667-3.733 0-7.133 1.133-10 3.067v10.267c0 3.667 3 6.667 6.667 6.667h10.667c3.667 0 6.667-3 6.667-6.667v-6.667z"></path>
<path fill="#c2185b" style="fill: var(--color6, #c2185b)" d="M28 21.333v-4.4c-3-4.533-8.133-7.6-14-7.6-3.733 0-7.2 1.267-10 3.333v8.667c0 3.667 3 6.667 6.667 6.667h10.667c3.667 0 6.667-3 6.667-6.667z"></path>
<path fill="#d81b60" style="fill: var(--color7, #d81b60)" d="M28 21.333v-1.6c-2.4-5.333-7.733-9.067-14-9.067-3.8 0-7.333 1.4-10 3.733v6.933c0 3.667 3 6.667 6.667 6.667h10.667c3.667 0 6.667-3 6.667-6.667z"></path>
<path fill="#f50057" style="fill: var(--color8, #f50057)" d="M27.733 23.2c-1.267-6.4-6.933-11.2-13.733-11.2-3.933 0-7.467 1.6-10 4.2v5.133c0 3.667 3 6.667 6.667 6.667h10.667c3 0 5.6-2 6.4-4.8z"></path>
<path fill="#ff1744" style="fill: var(--color9, #ff1744)" d="M26.6 25.333c-0.333-6.667-5.8-12-12.6-12-4.067 0-7.667 1.933-10 4.933v3.067c0 3.667 3 6.667 6.667 6.667h10.667c2.133 0 4.067-1.067 5.267-2.667z"></path>
<path fill="#ff5722" style="fill: var(--color10, #ff5722)" d="M14 14.667c-4.333 0-8.067 2.4-10 6v0.667c0 3.667 3 6.667 6.667 6.667h10.667c1.467 0 2.867-0.467 3.933-1.333 0-0.2 0.067-0.467 0.067-0.667 0-6.267-5.067-11.333-11.333-11.333z"></path>
<path fill="#ff6f00" style="fill: var(--color11, #ff6f00)" d="M14 16c-4.667 0-8.533 3.133-9.667 7.467 0.867 2.667 3.4 4.533 6.333 4.533h10.667c0.933 0 1.733-0.2 2.533-0.533 0.067-0.467 0.133-1 0.133-1.467 0-5.533-4.467-10-10-10z"></path>
<path fill="#ff9800" style="fill: var(--color12, #ff9800)" d="M14 17.333c-4.6 0-8.333 3.533-8.6 8 1.2 1.6 3.133 2.667 5.267 2.667h10.667c0.4 0 0.733-0.067 1.133-0.133 0.133-0.6 0.2-1.2 0.2-1.867 0-4.8-3.867-8.667-8.667-8.667z"></path>
<path fill="#ffc107" style="fill: var(--color13, #ffc107)" d="M21.067 28c0.2-0.667 0.267-1.333 0.267-2 0-4.067-3.267-7.333-7.333-7.333s-7.333 3.267-7.333 7.333c0 0.2 0 0.467 0.067 0.667 1.133 0.8 2.467 1.333 3.933 1.333h10.4z"></path>
<path fill="#ffd54f" style="fill: var(--color14, #ffd54f)" d="M14 20c-3.333 0-6 2.667-6 6 0 0.533 0.067 1.067 0.2 1.533 0.733 0.333 1.6 0.467 2.467 0.467h9c0.2-0.6 0.333-1.267 0.333-2 0-3.333-2.667-6-6-6z"></path>
<path fill="#ffe082" style="fill: var(--color15, #ffe082)" d="M14 21.4c-2.6 0-4.667 2.067-4.667 4.667 0 0.667 0.133 1.267 0.4 1.867 0.333 0.067 0.6 0.067 0.933 0.067h7.6c0.267-0.6 0.4-1.267 0.4-1.933 0-2.6-2.067-4.667-4.667-4.667z"></path>
<path fill="#ffecb3" style="fill: var(--color16, #ffecb3)" d="M14 22.733c-1.867 0-3.333 1.467-3.333 3.333 0 0.733 0.267 1.4 0.667 1.933h5.333c0.4-0.533 0.667-1.2 0.667-1.933 0-1.867-1.467-3.333-3.333-3.333z"></path>
<path fill="#fff" style="fill: var(--color17, #fff)" d="M20 25.333h-8c-2.933 0-5.333-2.4-5.333-5.333v-8c0-2.933 2.4-5.333 5.333-5.333h8c2.933 0 5.333 2.4 5.333 5.333v8c0 2.933-2.4 5.333-5.333 5.333zM12 8c-2.2 0-4 1.8-4 4v8c0 2.2 1.8 4 4 4h8c2.2 0 4-1.8 4-4v-8c0-2.2-1.8-4-4-4h-8z"></path>
<path fill="#fff" style="fill: var(--color17, #fff)" d="M16 20.667c-2.6 0-4.667-2.067-4.667-4.667s2.067-4.667 4.667-4.667c2.6 0 4.667 2.067 4.667 4.667s-2.067 4.667-4.667 4.667zM16 12.667c-1.867 0-3.333 1.467-3.333 3.333s1.467 3.333 3.333 3.333 3.333-1.467 3.333-3.333-1.467-3.333-3.333-3.333z"></path>
<path fill="#fff" style="fill: var(--color17, #fff)" d="M21.333 10.667c0 0.4-0.267 0.667-0.667 0.667s-0.667-0.267-0.667-0.667 0.267-0.667 0.667-0.667 0.667 0.267 0.667 0.667z"></path>
</symbol>
<symbol id="icon-telegram" viewBox="0 0 32 32">
<title>telegram</title>
<path fill="#00ace5" style="fill: var(--color18, #00ace5)" d="M29.333 16c0 7.364-5.97 13.333-13.333 13.333s-13.333-5.97-13.333-13.333c0-7.364 5.97-13.333 13.333-13.333s13.333 5.97 13.333 13.333z"></path>
<path fill="#fff" style="fill: var(--color17, #fff)" d="M22.784 9.874l-2.545 12.995c0 0-0.356 0.901-1.335 0.469l-5.873-4.56-2.135-1.045-3.595-1.225c0 0-0.552-0.198-0.605-0.631s0.623-0.667 0.623-0.667l14.291-5.677c-0.001-0.001 1.174-0.523 1.174 0.342z"></path>
<path fill="#d2e5f1" style="fill: var(--color19, #d2e5f1)" d="M12.58 22.722c0 0-0.171-0.016-0.385-0.701s-1.299-4.289-1.299-4.289l8.631-5.551c0 0 0.498-0.307 0.481 0 0 0 0.089 0.054-0.178 0.307s-6.781 6.182-6.781 6.182z"></path>
<path fill="#b5cfe4" style="fill: var(--color20, #b5cfe4)" d="M15.283 20.525l-2.323 2.145c0 0-0.181 0.139-0.38 0.052l0.445-3.984z"></path>
</symbol>
</defs>
</svg>
